{"title":"The.Place.Beyond.the.Pines.2012.DVDSCR.XviD.AC3 juggs","uid":8438146,"size":1516517191,"categoryP":"video","categoryS":"movies","magnet":"?xt=urn:btih:a258d0f578112ff7d7ae1e369c5173472bab19cb&amp;dn=The.Place.Beyond.the.Pines.2012.DVDSCR.XviD.AC3+juggs&amp;tr=udp%3A%2F%2Ftracker.openbittorrent.com%3A80&amp;tr=udp%3A%2F%2Fopen.demonii.com%3A1337&amp;tr=udp%3A%2F%2Ftracker.coppersurfer.tk%3A6969&amp;tr=udp%3A%2F%2Fexodus.desync.com%3A6969","seeders":0,"leechers":1,"uploader":"juggs99","files":3,"time":1367693774,"description":"Source : DVDSCR DRAGON(Thanks)\n &lt;a href=&quot;\nhttp://www.imdb.com/title/tt1817273/&quot; rel=&quot;nofollow&quot; target=&quot;_NEW&quot;&gt;\nhttp://www.imdb.com/title/tt1817273/&lt;/a&gt; \n\nFormat                                   : AVI\nFormat/Info                              : Audio Video Interleave\nFile size                                : 1.39 GiB\nDuration                                 : 2h 20mn\nOverall bit rate                         : 1 420 Kbps\nWriting library                          : VirtualDub build 32842/release\n\nVideo\nID                                       : 0\nFormat                                   : MPEG-4 Visual\nFormat profile                           : Advanced Simple@L5\nFormat settings, BVOP                    : 2\nFormat settings, QPel                    : No\nFormat settings, GMC                     : No warppoints\nFormat settings, Matrix                  : Default (H.263)\nMuxing mode                              : Packed bitstream\nCodec ID                                 : XVID\nCodec ID/Hint                            : XviD\nDuration                                 : 2h 20mn\nBit rate                                 : 1 187 Kbps\nWidth                                    : 720 pixels\nHeight                                   : 288 pixels\nDisplay aspect ratio                     : 2.500\nFrame rate                               : 23.976 fps\nColor space                              : YUV\nChroma subsampling                       : 4:2:0\nBit depth                                : 8 bits\nScan type                                : Progressive\nCompression mode                         : Lossy\nBits/(Pixel*Frame)                       : 0.239\nStream size                              : 1.16 GiB (84%)\nWriting library                          : XviD 1.2.0.dev47 (UTC 2006-11-01)\n\nAudio\nID                                       : 1\nFormat                                   : AC-3\nFormat/Info                              : Audio Coding 3\nMode extension                           : CM (complete main)\nFormat settings, Endianness              : Big\nCodec ID                                 : 2000\nDuration                                 : 2h 20mn\nBit rate mode                            : Constant\nBit rate                                 : 224 Kbps\nChannel(s)                               : 2 channels\nChannel positions                        : Front: L R\nSampling rate                            : 44.1 KHz\nBit depth                                : 16 bits\nCompression mode                         : Lossy\nStream size                              : 224 MiB (16%)\nAlignment                                : Aligned on interleaves\nInterleave, duration                     : 42 ms (1.00 video frame)\nInterleave, preload duration             : 522 ms\n &lt;a href=&quot;\nhttp://www.shotpix.com/images/65158020633247407823.png&quot; rel=&quot;nofollow&quot; target=&quot;_NEW&quot;&gt;\nhttp://www.shotpix.com/images/65158020633247407823.png&lt;/a&gt; &lt;a href=&quot;\nhttp://www.shotpix.com/images/51431470683161943807.png&quot; rel=&quot;nofollow&quot; target=&quot;_NEW&quot;&gt;\nhttp://www.shotpix.com/images/51431470683161943807.png&lt;/a&gt; &lt;a href=&quot;\nhttp://www.shotpix.com/images/72909975914636933037.png&quot; rel=&quot;nofollow&quot; target=&quot;_NEW&quot;&gt;\nhttp://www.shotpix.com/images/72909975914636933037.png&lt;/a&gt;","torrent":{"xt":"urn:btih:a258d0f578112ff7d7ae1e369c5173472bab19cb","amp;dn":"The.Place.Beyond.the.Pines.2012.DVDSCR.XviD.AC3+juggs","amp;tr":["udp%3A%2F%2Ftracker.openbittorrent.com%3A80","udp%3A%2F%2Fopen.demonii.com%3A1337","udp%3A%2F%2Ftracker.coppersurfer.tk%3A6969","udp%3A%2F%2Fexodus.desync.com%3A6969"],"infoHash":"a258d0f578112ff7d7ae1e369c5173472bab19cb","infoHashBuffer":{"type":"Buffer","data":[162,88,208,245,120,17,47,247,215,174,30,54,156,81,115,71,43,171,25,203]},"announce":[],"urlList":[]}}